<svg id="Camada_1" data-name="Camada 1" xmlns="http://www.w3.org/2000/svg" viewBox="0 0 210.65 201.25"><defs><style>.cls-1{fill:#e3e3e3;}.cls-2{fill:#ff6161;}.cls-3,.cls-7,.cls-8{fill:none;}.cls-4{fill:#d9d9d9;}.cls-5{fill:#ff8a8a;}.cls-6{fill:#fff;}.cls-7,.cls-8{stroke:#000;stroke-linecap:round;stroke-width:3px;}.cls-7{stroke-linejoin:round;}.cls-8{stroke-miterlimit:10;}</style></defs><g id="Colour"><path class="cls-1" d="M87,154.45a1.22,1.22,0,0,1,0,.2v.82a6.19,6.19,0,0,1-.33,2c-.18.65-.36,1.29-.59,1.92l-.22.56c1-1.23,1.44-3.05,1.15-5.64A.66.66,0,0,1,87,154.45Z" transform="translate(54.2 -5.73)"/><path class="cls-1" d="M128.23,23.66l.06-.32c0-.54,0-1.07.05-1.6-.15-.46-.31-.93-.51-1.41a4.74,4.74,0,0,0-.1-1.38c-.42-1.07-.64-1.6-.78-1.94a4,4,0,0,0-1.28-3.64,14.86,14.86,0,0,0-3.54-2.25,4.38,4.38,0,0,0-1-1.33L121,9.63a4.06,4.06,0,0,0-1.74-1.89,8.52,8.52,0,0,0-4.15-.8,12.64,12.64,0,0,0-4.29-.62l-.06-.06a135.71,135.71,0,0,1-15.8,1.2,3.76,3.76,0,0,1-2.55-.9,19.76,19.76,0,0,1-3,1.37c-2.67.64-5.37-.42-8-.86a3.89,3.89,0,0,1-.71-.19,132.29,132.29,0,0,0-13.87,1.3c-1.51.34-3.37.11-4.9.52a3.14,3.14,0,0,0-1,.1,1.78,1.78,0,0,0-.67-.16,13.77,13.77,0,0,0-2.36-.5,1,1,0,0,0-.34,0,4,4,0,0,0-3.93-1.22A23.43,23.43,0,0,0,48.16,7c-1.56.34-3,1-4.55,1.46a7,7,0,0,1-.69.2,4,4,0,0,0-5.38-1.32c-.19.11-.36.25-.54.37a3.63,3.63,0,0,0-3.07.1,4.29,4.29,0,0,0-1.36.83l0,0a4.73,4.73,0,0,0-1.07-1.15c-1.08.08-2.18.1-3.28.1a35.3,35.3,0,0,1-4.54-.41c-.17.1-.35.19-.52.3a3.08,3.08,0,0,0-.44-.37A3.91,3.91,0,0,1,20.2,8a12.76,12.76,0,0,1-1.6-.44h-.13a4.54,4.54,0,0,1-.85-.08,12.72,12.72,0,0,0-2.5,2.72,16.79,16.79,0,0,0-1.2,1.32c-.27.7,0,0-.36.77-.12.29-.5,1.17-.59,1.36s-.35,1-.42,1.13a39.79,39.79,0,0,0-1.68,5.73h0a3.39,3.39,0,0,0,.86,1,3.29,3.29,0,0,0-.58,2.08,26.75,26.75,0,0,0-.1,3.23,43,43,0,0,0,.34,4.67,6.81,6.81,0,0,0,.76,3,1.7,1.7,0,0,0,.15.22,9,9,0,0,0,.44,1.36v0a3.57,3.57,0,0,1,.37,2c-.49,5.19,1.63,6.67,5.72,8.4,3.5,1.48,8.16,1.64,12.08,2.09,4.09.47,9.09,1,13.81.32,1.78-.26,3.62-.31,5.43-.54a10.66,10.66,0,0,0,1.27-.32c1-.39,1.93-.73,2.9-1.06a2,2,0,0,0,1,.25v.06c.24,0,.48-.05.72-.08a26.27,26.27,0,0,0,2.59-.61,3.53,3.53,0,0,0,.85.21h0a12.11,12.11,0,0,0,3.13-.21l.27-.08H63a1.78,1.78,0,0,0,.86.69,2.19,2.19,0,0,0,.71.14c-.39.57-.79,1.2-1.3,2l-.45.64a3,3,0,0,0-.82,1.8A2.47,2.47,0,0,0,62.35,53c-.45.51-.89,1-1.36,1.52-3.45,5.79-8.8,11.2-12.69,16.32,0,.07-.93,1.42-1.14,1.77-.71,1.14-1.56,2.21-2.32,3.3-1.46,2.08-2.72,4.26-4.29,6.25-2.7,3.41-5.74,6.5-8,10.21-2.12,3.4-4.36,6.71-6.77,9.9A53.4,53.4,0,0,0,22,108.32c-.29.51-.38.65-.38.61-.25.6-.48,1.22-.77,1.8-.07.14-1.68,3.44-.57,1.12-.54,1.13-1.13,2.19-1.71,3.3-.67,1.27-1.22,2.61-1.87,3.89-.85,1.69-1.63,3.31-2.44,5S12.82,127.36,12,129a5.49,5.49,0,0,0-.37.95c0,.45-.1.4,0,0,0-.14,0-.31,0-.55a3.66,3.66,0,0,1-1.15,2.79,22.27,22.27,0,0,0,.05,6.77,19.33,19.33,0,0,0,2.76,6.78,16.73,16.73,0,0,0,1.79,2.15,8.64,8.64,0,0,0,1,4.34,3.44,3.44,0,0,1,.93.4,6.52,6.52,0,0,1,2.37,2.82c.7.38,1.47.71,2.15,1,1.43.63,4,2,5.77,2.77a9.2,9.2,0,0,1,1.46.47,5.14,5.14,0,0,1,1.19.71,2.87,2.87,0,0,0,2-.48c1.12.46,2.55,1,3,.73a17.71,17.71,0,0,0,2.88,1.14,24.74,24.74,0,0,0,5.55,1.89,39.9,39.9,0,0,0,11,.2c.84-.2.69-.1.26,0l.45-.05c2.27-.23,4.57-.13,6.82-.53h0c1.16-.09,2.33,0,3.49-.07l1.9-.29a28.29,28.29,0,0,1,8-1.24l.55-.08,0,0a3.61,3.61,0,0,1,1.59-.75h.09a3.28,3.28,0,0,1,.1-1.67c.12-.34.27-.66.41-1,.2-.77.44-1.42.58-2a8.72,8.72,0,0,1,.27-.86c0-.45,0-.9,0-1.35.1-1.17.15-1.42.15-.74,0-.12,0-.23,0-.35a16,16,0,0,1,.3-2.47c.83-3.54,4.9-3.51,6.82-1.43,0-1.8,0-3.58.19-5.2a42.4,42.4,0,0,0,.17-8.35,4,4,0,0,1-2.29,2.43,4.26,4.26,0,0,1-2.64,1,4,4,0,0,1-4-3.82,9,9,0,0,1-.16-2,3.69,3.69,0,0,1,.32-1.54,4.22,4.22,0,0,1,1.81-4.73,3.65,3.65,0,0,1,3.63-.14,5.08,5.08,0,0,0-1.37-3.26q-1.2-1.65-2.46-3.27a3.67,3.67,0,0,1-.4,1,4.18,4.18,0,0,1-2.46,2c-.3.1-2.12.6-1.2.31-1.08.33-2.15.68-3.24,1a4.06,4.06,0,0,1-4-1.2,4,4,0,0,1-3.45-3.93,4.08,4.08,0,0,1,1.52-3.09A4.49,4.49,0,0,1,65,110.74a4.26,4.26,0,0,1,1.51-1.56l.24-.14.16-.13a4.7,4.7,0,0,1,2.74-2.68,5.93,5.93,0,0,1,1.33-.39l.52-.41c.23-.21.48-.39.72-.58A7.12,7.12,0,0,1,75,102.41,6.19,6.19,0,0,1,78.74,101c4.88,0,5.13,7.16.77,7.92-.25.17-.49.32-.73.46a4,4,0,0,1-.65.9,27.81,27.81,0,0,1-2.59,2.12l-.05,0a2.64,2.64,0,0,0,.29-.15c.4-.31,1.51-1.19.59-.48.44-.32.86-.67,1.28-1l1.27-.76a2.87,2.87,0,0,0,2.76-.53A4.18,4.18,0,0,0,82.93,108l.08-.1,0,0,0-.06,0,0c2.23-3,4.16-9.44,4.52-9.93,2.11-4.67,5.15-8.83,7.84-13.19a21.83,21.83,0,0,0,3-3.69A117,117,0,0,0,105,71.1l1.21-1.79c.71-1,1.45-2,2.21-3.14.32-.45.64-.9,1-1.34l.28-.35a6.55,6.55,0,0,0,1.92-3.16l1.9-2.94c.34-.42.65-.81.93-1.18a2.4,2.4,0,0,0,.48-.11c.31-.5.63-1,1-1.5a4,4,0,0,1,.21-1.67c.52-2.85,3.34-5.67,4.7-7.85,1.6-2.57,3-5.42,4.53-8.11a3.39,3.39,0,0,0-.24-.55c0-.06-.08-.1-.11-.16a3,3,0,0,0-.07-.32c0-.08,0-.15-.07-.23.15-.29.31-.62.49-1a10.31,10.31,0,0,0,.68-2.22,4.87,4.87,0,0,0,.87-.47c.29-1,.57-2,.85-3s.51-1.93.71-2.92c0-.55,0-1.09,0-1.62A3.63,3.63,0,0,1,128.23,23.66Z" transform="translate(54.2 -5.73)"/><path class="cls-1" d="M153,152.18a13.11,13.11,0,0,1-.13-1.7c0,.26,0,.54,0,.86,0-1.81,0-1.56,0-.86a11.4,11.4,0,0,1,.56-2.79c.13-.45.25-.91.35-1.37.4-2.95.52-6.06.95-8.89a83.49,83.49,0,0,0,1.14-9.32c.07-1.64-.15-2.42-.19-4a8.1,8.1,0,0,1-.33-1.82c.5,1,.48.91,0-.27-.18-1-.32-1.9-.48-2.86-.09-.48-.21-1.1-.29-1.33-.63-1.93-.93-3.39-1.85-3.72-4.1-1.47-10-1-13.89-1a3.83,3.83,0,0,1-2.19-.64,3.8,3.8,0,0,0-.7,4.64,4.13,4.13,0,0,0,2.81,1.87,4.68,4.68,0,0,0,.68,3.07,31,31,0,0,0,3,4.74,7.65,7.65,0,0,0,1.62,2l.18.43a14.2,14.2,0,0,0,.95,4.09c.18.9.36,1.8.56,2.71a4.61,4.61,0,0,0,.6,1.88c0,.14.1.29.17.47a3,3,0,0,0,.58,1c.09.41.18.78.23,1a4.13,4.13,0,0,0,.88,1.91,4.39,4.39,0,0,0,.35,1.37,10.18,10.18,0,0,0-.07,1.35c0,.08,0,.16,0,.24h0a4.46,4.46,0,0,0,.24,1.31,9.15,9.15,0,0,0,.14,3.36,0,0,0,0,0,0,0,2.11,2.11,0,0,0,.24.76,3,3,0,0,0,1.47,1.66,2.58,2.58,0,0,1,0,.68h0a.51.51,0,0,0,0,.34l0,0a9.2,9.2,0,0,0,0,1c0,.23-.2.4-.21.64a2.14,2.14,0,0,0,0,.62,1.72,1.72,0,0,1,.13-.71,3.57,3.57,0,0,0,.47-1.41c.27-.07.42-.51.49-.92a3.79,3.79,0,0,0,1.34-.07A3.41,3.41,0,0,1,153,152.18Z" transform="translate(54.2 -5.73)"/><path class="cls-2" d="M151,159.79c.06-1.75-.35-3.7-.44-5.26-.05-.29-.09-.6-.12-.92s0-.5,0-.75,0-.26-.05-.4a14.21,14.21,0,0,0-.1-2.07,7.47,7.47,0,0,0-.19-1.42,5.34,5.34,0,0,0-1.63-3.33c-.28-1.91-.58-3.81-.94-5.7a3.36,3.36,0,0,0,.66-1.78c.29-1.3-.44-2.57-.82-3.79q-.51-1.35-.93-2.73c-.53-3.06-.3-3.47-1.26-7a3.87,3.87,0,0,0-3.69-2.91c-.33-.66-.67-1.31-1-2a4.51,4.51,0,0,0-.24-.51,4.15,4.15,0,0,0-.59-1.85c-1-1.72-2.66-3-3.95-4.48-.13-.19-.27-.38-.4-.58a4.24,4.24,0,0,0-5.49-2.58,6,6,0,0,0-.42-.57,4.38,4.38,0,0,0-5-.81,1.78,1.78,0,0,0-.65-.06,5,5,0,0,0-1.16-.11,3.88,3.88,0,0,0-3.66-.37,3.92,3.92,0,0,0-1.4.07,4.76,4.76,0,0,0-3.28.36h0l-.15.08q-.57.25-1.14.57a6.11,6.11,0,0,0-3,1.48,12.52,12.52,0,0,0-1,.76l-2.24,1-.72.3a3.44,3.44,0,0,0-1.35.71c-.45-.45-1-.8-1.16-1a.6.6,0,0,0-.74,0,1,1,0,0,0-.74-.16c-1.88-2.25-4.21-4.65-7.27-4.72a3.84,3.84,0,0,0-2.19.67,6.79,6.79,0,0,0-3.19-.51,3.72,3.72,0,0,0-.74.14c-1.88-.58-4,.25-6,1l-.56.15a5.92,5.92,0,0,0-1.37-.26,3.82,3.82,0,0,1-1.16.43c-.25.17-.49.32-.73.46a4,4,0,0,1-.65.9,27.81,27.81,0,0,1-2.59,2.12c-.4.3-.77.6-1.13.89a.79.79,0,0,0-.74-.06,7.39,7.39,0,0,0-1.79,1,.51.51,0,0,0-.17.4c-.14.13-.25.27-.09.41a.67.67,0,0,0,.28,0s0,.05.07.07c.23.17.77,0,1.24-.26a1.89,1.89,0,0,0,.75,0l.33,0c.14,0,.28,0,.41,0a5.12,5.12,0,0,0,.77.35,17.28,17.28,0,0,1,1.69.91l0,.07a11.25,11.25,0,0,0,1,1c.38.52.81.93,1.23.81a4.17,4.17,0,0,1-.12,2.37,8.85,8.85,0,0,0,.65,1c0,.08.07.17.11.25a21.18,21.18,0,0,0,2.79,4.41c0,.12,0,.25.06.37a4.78,4.78,0,0,1,1.26.72.88.88,0,0,0-.32.73.7.7,0,0,0,0,.14s0,0,0,0a1.52,1.52,0,0,0,0,1.27,13.09,13.09,0,0,0,.31,1.41s0,0,0,0a5.07,5.07,0,0,0,.32,1.33l.19.7a1.51,1.51,0,0,0-.11.56,38.64,38.64,0,0,0,.62,3.83l-.25.19v.08a5.65,5.65,0,0,0,.22,1.24c0,2.13-.06,6.25,0,8.17v.64l-.1.12c-.49,1.21-.22,1-.43,2.94a7,7,0,0,0,0,1.94c0,.42,0,.86.07,1.29,0,.11,0,.22,0,.32a5.13,5.13,0,0,1,0,.88,10.61,10.61,0,0,0,0,2.11c-.06.73-.14,1.19-.31,2.3a1.89,1.89,0,0,0,.64,2.32c-.06.11-.1.23-.17.34a4.4,4.4,0,0,1,.12,1v.16c0,.11,0,.21,0,.32a.07.07,0,0,1,0,0,3.71,3.71,0,0,1-.73,2c-.41.74-.94,1.46-1.44,2.2l0,.06a6.77,6.77,0,0,0-.45,3.48,46.45,46.45,0,0,0,1,5.84,3.7,3.7,0,0,0-.51,2.11c0,.15.06.3.09.45a3.88,3.88,0,0,1,.15.36c1.26,4.09,2.32,7.39,4.74,11,.94,1.38,2,3.21,3.32,4.9a21.22,21.22,0,0,1,3.92,2.68h.13c1.4,1.33,2.91,2.72,4.81,3,0,.12,0,.23.06.35a3.89,3.89,0,0,0,.16.44c4.85-.36,9,2.63,14.09,2.63a4,4,0,0,1,1.3.22c2.13-.11,4.25,0,6.38-.18a3.23,3.23,0,0,0,.34-.51l.09-.18a4.67,4.67,0,0,0,1.06.5,14.47,14.47,0,0,1,1.92-.31h0c-1.87.05.45-.43,0,0h.11a70.26,70.26,0,0,0,10.93-7.09l.05,0a.86.86,0,0,0,.81.08,5.25,5.25,0,0,0,1.17-.82,2.47,2.47,0,0,0,.67-.38c.27-.2.53-.42.79-.65.75-.54,1.52-1.12,2-1.57a1.88,1.88,0,0,0,.79-1,11.48,11.48,0,0,0,1.27-1.44l0,0c.05,0,.05,0,0,0a8.18,8.18,0,0,0,.51-.79,1.88,1.88,0,0,0,.06-.46c.09-.14.2-.27.29-.41a1.71,1.71,0,0,0,0-1.48l.39,0a34.06,34.06,0,0,0,1-4c1.88-3.79,2.14-8.37,2.47-12.53a4.36,4.36,0,0,0-.31-1.55c0-1.62,0-3.25,0-4.87a5.1,5.1,0,0,0,1.6-3,4.82,4.82,0,0,0,.77-2.44H151A1.06,1.06,0,0,0,151,159.79Z" transform="translate(54.2 -5.73)"/><path class="cls-3" d="M90.85,73.38l0,.05" transform="translate(54.2 -5.73)"/><path class="cls-4" d="M86.19,147.65a1.59,1.59,0,0,0-.31-.54,1.69,1.69,0,0,0-1.07-1.1,2,2,0,0,0-1.41,0,2.34,2.34,0,0,0-.53,0q0-.89,0-1.77a2,2,0,0,0,.82-1.68c0-.72,0-1.43,0-2.15a2,2,0,0,0,1.08-.73,1.75,1.75,0,0,0,.72-.89c.51-1.51-.43-3.13-.67-4.63-.06-.2-.11-.4-.16-.61a10,10,0,0,0-.23-1.14,9.75,9.75,0,0,0-.35-1.34c-.13-.49-.25-1-.38-1.46.45-1.46-.38-3.63-.58-5-.3-1.09-.74-2.13-1.06-3.21a4.12,4.12,0,0,0-.84-2,1.91,1.91,0,0,0-1-.51,3.7,3.7,0,0,0-.84-1.11l-.07,0a2.79,2.79,0,0,0-.82-1,1.83,1.83,0,0,0-1.63-.16,2,2,0,0,0-1,0l-.23,0a1.78,1.78,0,0,0-1.86-.82l-.13,0a1.8,1.8,0,0,0-1.35,0,2,2,0,0,0-.59-.13,2.09,2.09,0,0,0-1.74-.19,24.47,24.47,0,0,0,3.07-2.41h.08a2.18,2.18,0,0,0,1.51-.67l.69,0a6.1,6.1,0,0,0,1.09-.45,5.43,5.43,0,0,0,3.28-1.4c.84-.67,2.18-1.13,2.27-2.36a1.34,1.34,0,0,0,0-.28l.18-.17.07-.07a4.82,4.82,0,0,0,.72-.87,1.15,1.15,0,0,0,.06-.17c.25-.4.48-.82.69-1.23a2,2,0,0,0-.52-1.92,1.79,1.79,0,0,0,.06-1.18,2,2,0,0,0-.4-2.68,11,11,0,0,0,.74-3.35,2.09,2.09,0,0,0-1.95-2,2,2,0,1,0-2.21.77,17.58,17.58,0,0,0-2.72,3.33c-2.2.65-4.64,3.86-5.83,5.1-.83,1-1.69,2-2.5,3.06-1,.93-2,1.85-3,2.74-.57.43-1.86,1.45-2.23,1.69-1.49,1-3.56,2.81-1.88,4.57a2.23,2.23,0,0,0,1,.53,5.54,5.54,0,0,0-.19,1.87,14.48,14.48,0,0,1-.23,2c-.08.2-.17.39-.25.58a2.65,2.65,0,0,0-.09,2.45,2.06,2.06,0,0,0,1.87,1,4.32,4.32,0,0,0,.91,1.51,2.44,2.44,0,0,0,1.27.7c.75,1.46,1.78,2.57,3.08,2.32a2.28,2.28,0,0,0,.6.12,1.84,1.84,0,0,0,1.94-1.75,2.27,2.27,0,0,0,.72-.19,3.77,3.77,0,0,0,1,.64,1.94,1.94,0,0,0-2.1,1.68,1.52,1.52,0,0,0,.06.82.08.08,0,0,1,0,0c.13.54.24,1.09.35,1.63a24.15,24.15,0,0,0,.57,2.52,12.09,12.09,0,0,0-3.67-2.6,14.74,14.74,0,0,1,4.08,4.28l.12.14c.58,1.82,1.23,3.62,1.78,5.44a8,8,0,0,0,.29,1,.24.24,0,0,1,0,.08h0a2.2,2.2,0,0,0,1,1.22l.55,1.75a2.18,2.18,0,0,0,1,1.59,2,2,0,0,0,1.65.15,11.48,11.48,0,0,0-.43,1.75s0,0-.05.05a8.62,8.62,0,0,0-.89,3,2.24,2.24,0,0,0-.16.89.07.07,0,0,1,0,.05l0,.22c-.08.61-.13,1-.19,1.45a21.78,21.78,0,0,0-.65,3.59,2,2,0,0,0,2.75,1.84h.22a2.27,2.27,0,0,0,.3-.06,1.93,1.93,0,0,0,.89.11,1,1,0,0,0,.87.39h0a1,1,0,0,0,.71,0,1,1,0,0,0,.39-.21,1.15,1.15,0,0,0,.78-.16,2.11,2.11,0,0,0,.89-1.12,2.41,2.41,0,0,0,.82-.94,9.35,9.35,0,0,0,.51-1.27c.45-.95.11-.93.4-1.72a16.75,16.75,0,0,0,.37-2.13c.14-.44,0-.72.22-1.76A9.46,9.46,0,0,0,86.19,147.65ZM73.9,127.34a1.94,1.94,0,0,0,1.72-1.43.08.08,0,0,1,0,0l.23,0a2.5,2.5,0,0,0,.84.84c0,.12,0,.25,0,.37a2,2,0,0,0-.68.44,2.36,2.36,0,0,0-.58,1.21,2.47,2.47,0,0,0-.11.36,1.91,1.91,0,0,0-.73-1.2,1.08,1.08,0,0,0-.64-.14,1.46,1.46,0,0,0-.28-.21,1.75,1.75,0,0,0-.28-.13A1.78,1.78,0,0,0,73.9,127.34Z" transform="translate(54.2 -5.73)"/><path class="cls-1" d="M85.29,136.63v-.09c.06-1.76-.08-3.53-.18-5.29a2.2,2.2,0,0,0-.59-1.7,1.82,1.82,0,0,0-1.18-.56,31.07,31.07,0,0,0-1.09-3.83,1.83,1.83,0,0,0-1-.82A18.13,18.13,0,0,0,79,118.75a2,2,0,0,0-.53-1.8,5.47,5.47,0,0,0-1.45-.83h0c-.61-.35-1.17-.93-1.9-1a1.7,1.7,0,0,0-.78,0,2.9,2.9,0,0,0-.51,0,12.19,12.19,0,0,1-1.69-.22,2.46,2.46,0,0,0-3,1.8,1.59,1.59,0,0,0-.91.53,1.11,1.11,0,0,0-.26.55l-.06,0a2.45,2.45,0,0,0-.28-1,1.93,1.93,0,0,0-2.1-.93l1-.82a1.67,1.67,0,0,0,1,.1,2.5,2.5,0,0,0,1.32-.63c1.08-.71,2.12-1.49,3.15-2.27a1.81,1.81,0,0,0,.89.22,3.43,3.43,0,0,0,1.81-.76,2.73,2.73,0,0,0,2.07-.37,42,42,0,0,0,4-2.72c.81-.65,1.87-1.26,1.87-2.44a2,2,0,0,0-.06-.42l0,0c.42-.38.82-.81,1.19-1.22l.27-.25,0,0,.34-.37a2.14,2.14,0,0,0,.22-.52,3,3,0,0,0,1-2.64c.68-.91,1.16-1.91.35-2.93a1.68,1.68,0,0,0-.73-.59,1.86,1.86,0,0,0-.81-1,2.72,2.72,0,0,0,0-.64,1.94,1.94,0,0,0-.82-1.12.81.81,0,0,0,0-.16c1.24-1.46,2.79-4,.5-5.11h0A1.81,1.81,0,0,0,83,87.8a1.84,1.84,0,0,0-1.77-.09c-2.38-.44-3.93,2.66-5.17,4.34-1.43,2.25-2.91,4.46-4.23,6.77-.56,1.08-1.22,2.14-1.87,3.19-1.6.32-2.43,2-3.43,3.23a1.55,1.55,0,0,0-.43,0,2.07,2.07,0,0,0-.75-.52c-1.87-.82-3,1.36-3.75,2.71a60.29,60.29,0,0,0-3.49,6.9c-.71,2-3.13,6.32-1.25,7.88a1.45,1.45,0,0,0,.64,1.12c1.24.89,2.3.32,3.14-.62.29,1.88.35,3.94,1.56,5.45,1.43,1.19,2.5,1.2,3.36.62a28,28,0,0,0,1.06,5.79c.09.27.17.57.26.9.42,3.46.85,6.93,1.23,10.4a26.81,26.81,0,0,0,.6,4A2.16,2.16,0,0,0,70,151.68c1.55.47,1.52-.13,2.46-.38a3.51,3.51,0,0,0,1.37-1.49,7,7,0,0,1-.12.95c-.16,1.71-.29,3.43-.41,5.15a2.82,2.82,0,0,0,.51,2.62,2.06,2.06,0,0,0,2,.5,3.08,3.08,0,0,0,.11.74,3.49,3.49,0,0,0,.38,1.56,3.27,3.27,0,0,1,1.29-.53,4.58,4.58,0,0,1,2.61.23,1.77,1.77,0,0,0,1.24-.41,1.86,1.86,0,0,0,.53-.62l.06,0H82s.08,0,.12-.05a1.76,1.76,0,0,0,.61-.34h0l.13-.1a1.77,1.77,0,0,0,.39-.6l0,0a1.66,1.66,0,0,0,.06-.21l.06-.19a4.42,4.42,0,0,0,.13-.61h0v-.17c0-.08,0-.16,0-.23a1.8,1.8,0,0,0,.56-1.35h0c0-.76,0-1.51,0-2.27,0-.56,0-1.13,0-1.69,0-.82,0-1.65,0-2.47a3.85,3.85,0,0,0,.19-2c0-1-.07-2.05-.12-3.08.09-.43.18-.86.26-1.3a1.18,1.18,0,0,0,.41-.42l0-.11a1.73,1.73,0,0,0,.41-.3c.68-.56.65-2.65.17-4.66A11.79,11.79,0,0,1,85.29,136.63Z" transform="translate(54.2 -5.73)"/><path class="cls-2" d="M83.2,121.24c-.09-.28-.23-.53-.34-.8a.46.46,0,0,0-.18-.51l-.06-.07c-1-2.32-2-3.4-1.86-5.08.33-1.44,1.06-3.55-.91-4.09a1.06,1.06,0,0,0-1.69-.87,5,5,0,0,0-1.91,1.81,1.55,1.55,0,0,0,0,.21l-.35.21c-.14.18.12.16.23.1l.14-.05a.64.64,0,0,1,0,.07c-.06.19,0,.4.35.56a.78.78,0,0,0,.34,0,1.4,1.4,0,0,0,.79-.14,1.31,1.31,0,0,0,.6.17l.34.06a8,8,0,0,0-.45,3.76,18.61,18.61,0,0,0,1.28,3,1,1,0,0,0,.07.46,7.21,7.21,0,0,0,.83,1.49c.34.48.56,1.14,1.2,1.29A1.28,1.28,0,0,0,83.2,121.24Z" transform="translate(54.2 -5.73)"/><path class="cls-1" d="M146.52,127.82c-.06-.36-.13-.71-.22-1.06a1,1,0,0,0,.2-.38,1.25,1.25,0,0,0,0-.51,4.78,4.78,0,0,0-.9-2.5,3.09,3.09,0,0,0-1.14-1.79,1.11,1.11,0,0,0-1.53,1,7.58,7.58,0,0,0,.58,1.9c.16.42.59,1.15.71,1.42,0,0,0,0,0,.06s0,.09,0,.14a.06.06,0,0,1,0,0,1.36,1.36,0,0,0,.59.88,1,1,0,0,0,.59.14c.14.32.27.63.39,1C146,128.65,146.72,128.45,146.52,127.82Z" transform="translate(54.2 -5.73)"/><path class="cls-1" d="M152.17,155a3.5,3.5,0,0,0,.17-1.44c-.05-.61,0-1.32-.47-1.77,0,0-.06,0-.08-.06a3.2,3.2,0,0,0-.51-1.62l0,0c-.05-.57-.11-1.14-.14-1.71,0-.08,0-.08,0,0a2.89,2.89,0,0,0-.08-.59.8.8,0,0,0-.71-.4h0a.15.15,0,0,0-.19,0h0a.81.81,0,0,0-.54.36,13.28,13.28,0,0,0-.31,3.16,3.47,3.47,0,0,0,0,.56c0,.28,0,.56,0,.83a1,1,0,0,0,.11.49,1.53,1.53,0,0,0,0,.32h0a19.35,19.35,0,0,0-.06,3.65,1.23,1.23,0,0,0,.52,1,1.32,1.32,0,0,0,1.94-.37,2.67,2.67,0,0,0,.17-.66h0v0l0-.22a.35.35,0,0,0,0-.08h0a1.31,1.31,0,0,0,.17-.54s0-.08,0-.11,0,0,0-.07v0A2.92,2.92,0,0,0,152.17,155Z" transform="translate(54.2 -5.73)"/><path class="cls-3" d="M95,67.08s0,0,0,0" transform="translate(54.2 -5.73)"/><path class="cls-5" d="M119.05,204.35l-.85-.07a8.82,8.82,0,0,1-2.15-.43c-.64-.17-1.28-.29-1.92-.47a30.86,30.86,0,0,1-3.08-.9,19.85,19.85,0,0,1-2.6-1,33.34,33.34,0,0,1-9.66-6.18A30.12,30.12,0,0,1,93,187.73a27,27,0,0,1-2.13-5.55c-.41-1.7-.78-3.41-1.07-5.13,0-.28-.07-.56-.11-.84a.58.58,0,0,0,0-.1c0-.24-.06-.58-.09-.76,0,0,0-.06,0-.1-.38-5,.11-7.33.24-10.47.27-5.2.58-9.75.75-12.07a2.18,2.18,0,0,0,0-.38l.09-.61c-.12.86,0,.23,0-.25.09-.78.38-5.12.42-5.87a60.19,60.19,0,0,0-.44-7.71c.18,1.26-.1-1.24-.08-1a58.5,58.5,0,0,0-2.13-8.92A44.43,44.43,0,0,0,86.34,123a3.07,3.07,0,0,0-.07-.53,15.23,15.23,0,0,0-.76-1.75,18.87,18.87,0,0,0-1.66-3,3.13,3.13,0,0,0-.1-.44,15.29,15.29,0,0,0-.65-1.62,7,7,0,0,1,.07-1.68,11.79,11.79,0,0,1,.76-2.06c.89-.8,1.65-1.94,2.3-2a3.77,3.77,0,0,0,1.32-.46,3,3,0,0,1,.62-.41,1.25,1.25,0,0,0,.58-.08h.09a.83.83,0,0,0,.25-.24l0,0a.41.41,0,0,0,0-.17v-.05a.16.16,0,0,0,0-.09.44.44,0,0,0-.26-.29.88.88,0,0,0-.57-.11,1.86,1.86,0,0,0-1.19.29,4.91,4.91,0,0,0-.5.17,6.41,6.41,0,0,0-1.38.2c-.2.08-.33.15-.45.21a.45.45,0,0,0-.23-.07.48.48,0,0,0-.21,0c-.46-1.09-1.73-.21-2.52.53a1.27,1.27,0,0,0-.27-.18,1.73,1.73,0,0,0-1.61-.39,3.47,3.47,0,0,0-1.8,2.18,4,4,0,0,1-.2.35,12.23,12.23,0,0,0-1.54-.54c-1.1-.16-1,1.06-.46,1.66a.24.24,0,0,0-.08.06.11.11,0,0,0,0,.05l-.16,0a.13.13,0,0,0,0,.09,1.69,1.69,0,0,0-.65.4,1.67,1.67,0,0,0-.5,0,.51.51,0,0,0-.26,0,1.33,1.33,0,0,0-.83.17.7.7,0,0,0-.17.09h0a1.72,1.72,0,0,0-.81.12c-1.44.6-.69,2.31.84,2l.35,0a5.6,5.6,0,0,0,1.38.32c.25.08.53.17.81.23l.47.35A20.07,20.07,0,0,0,77.8,118a1.52,1.52,0,0,0,.5.35l.51.64a2.12,2.12,0,0,0,1,.83l.11,0a4.87,4.87,0,0,1,.56.83,1.94,1.94,0,0,0,.8.83,27.13,27.13,0,0,0,1.22,3.84c0,.13.08.26.13.39s.15.37.22.55c.17.45.33.89.48,1.34.06.16.16.39.23.54s.26.62.32.76c0-.05,0-.13-.11-.26l.15.37a1.24,1.24,0,0,0,.15.33,5.43,5.43,0,0,0,.33,1.9,5,5,0,0,0-.08.54h0s0,.07,0,.11a14.93,14.93,0,0,0,.48,3.74,10.87,10.87,0,0,0,.45,5.2v.32h0a2.16,2.16,0,0,0,.25.94c0,3.11-.09,6.57-.13,7.72s-.09.75-.22,1.51c-.78,4.07-.4,8.25-.94,10.45a62.25,62.25,0,0,0-.8,6.58A38,38,0,0,0,83.2,177c0,.13,0,.34.08.61a34.26,34.26,0,0,0,1.09,4.65,24.55,24.55,0,0,0,1.24,3l0,.11h0a24.41,24.41,0,0,0,2.56,5,29.21,29.21,0,0,0,2.67,3.43A62.71,62.71,0,0,0,96,198.51a18,18,0,0,0,3.77,2.07,47.47,47.47,0,0,0,7.25,2.51c.93.22,1.79.67,2.71.93,1.79.47,3.63.71,5.45,1a1.25,1.25,0,0,0,.37,0,2.72,2.72,0,0,1-.49-.13c-1.06-.35-2.18-.69-3.25-1.06,1,.13,2.06.27,3.28.39.76,0,1.51.19,2.27.22l1.14-.08C118.71,204.41,119.27,204.35,119.05,204.35Z" transform="translate(54.2 -5.73)"/><path class="cls-5" d="M83.26,177.13a.57.57,0,0,1,0-.13C83.21,176.8,83.2,176.81,83.26,177.13Z" transform="translate(54.2 -5.73)"/><path class="cls-5" d="M85.69,185.4Z" transform="translate(54.2 -5.73)"/><path class="cls-5" d="M116.93,108.08c-1-.26-2.62,1-3.13,1.33-.17.16-.52.37-.93.69a1.54,1.54,0,0,0-1.75,0,1.56,1.56,0,0,0-.67.22l0,0a1.45,1.45,0,0,0-1,.6,6.61,6.61,0,0,0-.45.82,4.56,4.56,0,0,0-.27.46s0,0,0,0a1.28,1.28,0,0,0-.74.74,7,7,0,0,0-.48.54c-.1.21-.47.45-.31.7l.08,0s0,.09.09.13l0,0h-.16a.38.38,0,0,0-.06.6c.34.47.92,1.19,1.3,1.74s.52,1,1,1.34a1.41,1.41,0,0,0,.42.06l.24.13h.07a1.56,1.56,0,0,1,.05.16,44,44,0,0,1,2.38,5.69s0,0,0,.06a7.24,7.24,0,0,0,.67,2.46,1.19,1.19,0,0,0,2-.12,2.17,2.17,0,0,0,.13-.56,1.13,1.13,0,0,1,0,.7.82.82,0,0,1-.15.39,1.51,1.51,0,0,0,.35-.63,2.28,2.28,0,0,0-.18-1.22c0-.09-.06-.18-.08-.27-.11-.91-.45-1.83-.6-2.7a55.8,55.8,0,0,0-2.19-5.45l-.21-.42c0-.33,0-.7,0-1.11h0c0-.11,0-.21,0-.32s.06-.27.11-.48a12.07,12.07,0,0,1,2.35-3.39l.24-.2.64-.46a3.14,3.14,0,0,1,.37-.18,5.83,5.83,0,0,0,1.18-.7A.9.9,0,0,0,116.93,108.08Z" transform="translate(54.2 -5.73)"/><path class="cls-5" d="M120.61,195.2a16.34,16.34,0,0,1-1-3,11.08,11.08,0,0,1-.72-3.09c-.11-1.25-.25-1.48-.31-3,.08-8.44,1.43-9.71,1.11-18.42-.16-3.31.25-4.43.1-8-.3-3.85-.53-8.23-1-12.86a22.56,22.56,0,0,0-.38-3.41,29.7,29.7,0,0,0-1.08-6.36c-.47-2-.87-4-2.2-5.64,1.25,2.3,1,4.92,1.25,7.1.35,5.88-.49,16-.13,20.49,0,3.47-.29,4.49-.21,7.62a93.89,93.89,0,0,1,.29,9.7c-.16,5.95-.16,10.68,2,15.44a21.5,21.5,0,0,0,2.32,4.08,2.61,2.61,0,0,0,.63.61A4,4,0,0,1,120.61,195.2Z" transform="translate(54.2 -5.73)"/><path class="cls-5" d="M115.22,126.74l0,0Z" transform="translate(54.2 -5.73)"/><path class="cls-6" d="M148.46,160.52a11.38,11.38,0,0,0,.23,2.68A7.52,7.52,0,0,0,148.46,160.52Z" transform="translate(54.2 -5.73)"/><path class="cls-6" d="M133,198s15.33-8,14.13-34.46C147.16,163.48,145.46,187.41,133,198Z" transform="translate(54.2 -5.73)"/><path class="cls-6" d="M-53.22,124.22a1,1,0,0,0,0,2A1,1,0,0,0-53.22,124.22Z" transform="translate(54.2 -5.73)"/><path class="cls-6" d="M68.76,52.11c-1.47,1.66-2.62,3-4,4.75a22.36,22.36,0,0,0-2.26,2.67c-2.14,2.55-2.8,3.83-4.63,5.82C55.79,68.46,53,72.12,51,75.17c-4.29,5.6-10.48,15-14.82,20.78a23.26,23.26,0,0,0-2.32,3.35c-1.38,2-2.15,3.15-3.33,4.78-4.11,5.63-9.39,14-11.65,21A55.53,55.53,0,0,0,17,133.17a25.68,25.68,0,0,0-.19,3.44,18.74,18.74,0,0,0,.33,5.28,24.29,24.29,0,0,1,.45-6.37,26.49,26.49,0,0,1,1.6-6.36,49.43,49.43,0,0,1,4.07-9.51A123.29,123.29,0,0,1,33,104.08c1.94-2.63,3.32-5.16,5-7.25,4-5.39,8.59-12.34,12.58-17.73,1.92-2.49,4.39-6.33,6.8-9.54a60.65,60.65,0,0,1,3.66-5.1c1.1-1.64,1.94-2.93,2.93-4.3.68-1.17,1.37-1.74,2-2.74,1.23-1.77,2.31-3.35,3.42-4.87a49.58,49.58,0,0,1,3.77-5.43C72.06,47.89,70,50.6,68.76,52.11Z" transform="translate(54.2 -5.73)"/><path class="cls-6" d="M17,39.55a12.31,12.31,0,0,1-.87-2.61,16.89,16.89,0,0,1-.77-3.36A19.76,19.76,0,0,1,15,29.26a30.79,30.79,0,0,1,.67-8.46,18.59,18.59,0,0,1,1-4.89,9.35,9.35,0,0,1,2.39-4.09,11,11,0,0,0-2.57,2.75c-.34.85-.87,1.62-1.17,2.48-.5,1.37-.67,2.72-1.08,4.16a21.65,21.65,0,0,0-.48,2.3s0,0,0,0a4.24,4.24,0,0,0-.15,1,13.17,13.17,0,0,0-.16,4.55,27.2,27.2,0,0,0,.2,2.81c.12.72.53,2.47.81,3.52s.69,1.55,1,2.52a9.73,9.73,0,0,0,3.43,4.48c.22.17-.07-.08-.12-.18A7.7,7.7,0,0,1,17,39.55Z" transform="translate(54.2 -5.73)"/></g><g id="Layer_2" data-name="Layer 2"><g id="Z"><path class="cls-7" d="M13.69,42.3s-3.88-9.62-2.62-19C12.16,15.15,16.2,8.11,19.17,8,37,7.61,103.8,7,113.42,7.31c12.93.41,20.74,15.19,6.12,39.79C102.31,76.08,91.93,90,80.4,109.41" transform="translate(54.2 -5.73)"/><path class="cls-7" d="M13.69,42.3c1.64,8,21,7.08,53,4.31" transform="translate(54.2 -5.73)"/><path class="cls-7" d="M66.71,46.6s-54.48,71.07-55.64,86" transform="translate(54.2 -5.73)"/><path class="cls-8" d="M136.44,113.87s14.75-2.5,17.19,2.1c3.92,7.39-1.94,45-4.14,45.54" transform="translate(54.2 -5.73)"/><path class="cls-8" d="M11.22,131.54S2.46,173.05,75.55,161" transform="translate(54.2 -5.73)"/><line class="cls-8" x1="129.79" y1="155.22" x2="138.51" y2="154.19"/></g><g id="Tongue"><path class="cls-8" d="M69.16,115.58s29.23-24,45.16,11.16" transform="translate(54.2 -5.73)"/><path class="cls-8" d="M75.59,115.58s15.16,7.17,8.5,47.68,29.75,41.7,30.71,42.21c0,0,20.86-.06,29.68-15.88,4.92-8.81,5.55-15.41,4.69-36.07-1.71-41-19.44-45.25-26.28-46-7.27-.75-17.21,6.35-17.21,6.35" transform="translate(54.2 -5.73)"/><path class="cls-7" d="M63.34,117.17s8.92-2.35,12.25-1.59" transform="translate(54.2 -5.73)"/></g></g></svg>